<?xml version="1.0" encoding="UTF-8" standalone="no"?>
<!-- Created with Inkscape (http://www.inkscape.org/) -->

<svg
   width="168.3147mm"
   height="74.412758mm"
   viewBox="0 0 168.31469 74.412758"
   version="1.1"
   id="svg1"
   inkscape:version="1.3.2 (091e20ef0f, 2023-11-25)"
   sodipodi:docname="logoWhite.svg"
   xmlns:inkscape="http://www.inkscape.org/namespaces/inkscape"
   xmlns:sodipodi="http://sodipodi.sourceforge.net/DTD/sodipodi-0.dtd"
   xmlns="http://www.w3.org/2000/svg"
   xmlns:svg="http://www.w3.org/2000/svg">
  <sodipodi:namedview
     id="namedview1"
     pagecolor="#ffffff"
     bordercolor="#000000"
     borderopacity="0.25"
     inkscape:showpageshadow="2"
     inkscape:pageopacity="0.0"
     inkscape:pagecheckerboard="0"
     inkscape:deskcolor="#d1d1d1"
     inkscape:document-units="mm"
     inkscape:zoom="1.0351711"
     inkscape:cx="281.11293"
     inkscape:cy="109.6437"
     inkscape:window-width="1536"
     inkscape:window-height="790"
     inkscape:window-x="0"
     inkscape:window-y="0"
     inkscape:window-maximized="1"
     inkscape:current-layer="g2243" />
  <defs
     id="defs1" />
  <g
     inkscape:label="Layer 1"
     inkscape:groupmode="layer"
     id="layer1"
     transform="translate(-23.812499,-87.577083)">
    <g
       id="g2243"
       transform="translate(2.3241332,7.260311)">
      <path
         style="fill:#71e931"
         d="m 85.899969,137.21846 v -17.22898 h -3.153016 -3.153015 v -2.70258 -2.70259 h 9.909477 9.909478 v 2.70259 2.70258 h -3.096712 -3.096712 v 17.22898 17.22898 h -3.65975 -3.65975 z m 14.188571,17.18147 c 0,-0.0695 3.53631,-17.8418 4.90877,-24.66988 0.64735,-3.22058 1.59394,-7.9458 2.10353,-10.50048 l 0.92654,-4.64487 3.91312,-1.9e-4 c 2.15221,-1.1e-4 3.91312,0.0261 3.91312,0.0583 0,0.0897 1.10509,5.68679 1.4114,7.14844 0.24358,1.16232 4.46157,22.26744 5.89907,29.51659 0.31464,1.58667 0.57207,2.94219 0.57207,3.01225 0,0.0919 -0.93365,0.1274 -3.3544,0.1274 h -3.3544 l -0.19324,-1.09793 c -0.10628,-0.60386 -0.42196,-2.46611 -0.70151,-4.13833 -0.27954,-1.67223 -0.54557,-3.2431 -0.59116,-3.49084 l -0.0829,-0.45043 -3.44495,-0.0298 -3.44495,-0.0298 -0.25748,1.43735 c -0.70246,3.92143 -1.0268,5.78603 -1.14125,6.561 -0.0595,0.40258 -0.13252,0.84597 -0.16236,0.98532 l -0.0542,0.25337 h -3.43239 c -1.88782,0 -3.43239,-0.0214 -3.43239,-0.0475 z m 14.52639,-13.85568 c 0,-0.0896 -0.55836,-3.76193 -0.78818,-5.18382 -0.12013,-0.74321 -0.37337,-2.31409 -0.56277,-3.49084 -0.54693,-3.39816 -1.24768,-7.64753 -1.28037,-7.76426 -0.0287,-0.10256 -0.13704,0.53642 -1.02987,6.07515 -0.94023,5.83277 -1.08598,6.72683 -1.35163,8.29122 -0.15386,0.90605 -0.27974,1.75483 -0.27974,1.88618 0,0.23657 0.0248,0.23881 2.64628,0.23881 1.45546,0 2.64628,-0.0236 2.64628,-0.0524 z m 12.97773,-6.00022 0.0285,-19.90342 h 2.51221 2.51221 l 1.10576,2.58998 c 2.61824,6.13263 6.18103,14.50571 7.24546,17.02795 0.63292,1.49972 1.18876,2.72856 1.23521,2.73074 0.0465,0.002 0.0845,-5.03805 0.0845,-11.2005 v -11.20447 h 2.9841 2.9841 v 19.93156 19.93157 h -2.41055 -2.41056 l -0.33766,-0.81641 c -0.32189,-0.7783 -1.98959,-4.84276 -4.23924,-10.33176 -0.57113,-1.39352 -1.94599,-4.7633 -3.05525,-7.48841 l -2.01683,-4.95474 -0.0287,11.79566 -0.0287,11.79566 h -3.0965 -3.09651 z m 26.8854,-0.0282 v -19.93156 h 3.60344 3.60345 v 19.93156 19.93157 h -3.60345 -3.60344 z m 11.30152,19.6719 c 0.13187,-0.52539 5.2599,-26.11356 7.59829,-37.91434 l 0.32355,-1.63282 3.89319,-0.0296 c 3.63605,-0.0276 3.89708,-0.0165 3.95195,0.16891 0.0644,0.21748 2.5513,12.55993 4.07881,20.24269 2.37265,11.93356 3.76865,18.93759 3.82112,19.17146 l 0.0568,0.25337 h -3.37823 -3.37823 l -0.0554,-0.25337 c -0.0761,-0.34785 -1.06779,-6.28546 -1.29308,-7.74178 l -0.1829,-1.18238 h -3.47953 -3.47953 l -0.79724,4.50431 -0.79725,4.50431 -0.73082,0.0713 c -0.40196,0.0392 -1.96515,0.0772 -3.47377,0.0845 l -2.74295,0.0132 z m 14.59825,-13.65442 c 0,-0.0348 -0.3044,-1.92243 -0.67645,-4.19464 -0.37205,-2.27221 -0.95627,-5.85419 -1.29827,-7.95996 -0.342,-2.10576 -0.66072,-3.92383 -0.70826,-4.04015 -0.0571,-0.1396 -0.15298,0.2432 -0.28215,1.12607 -0.10764,0.73567 -0.31935,2.09768 -0.47048,3.02669 -0.15112,0.92902 -0.45478,2.80393 -0.67478,4.16649 -0.22001,1.36255 -0.47414,2.93343 -0.56474,3.49084 -0.0906,0.5574 -0.26818,1.69756 -0.3946,2.53367 -0.12643,0.83611 -0.25704,1.60888 -0.29025,1.71727 -0.0563,0.18389 0.12076,0.19706 2.64981,0.19706 1.49059,0 2.71017,-0.0285 2.71017,-0.0633 z m -148.669157,-2.16066 -0.02931,-5.0392 -5.095498,-0.0293 -5.095499,-0.0293 V 112.33101 91.387124 l 15.399103,-0.01942 c 8.469507,-0.01068 15.880501,-0.0065 16.468876,0.0094 4.62348,0.124528 9.540981,2.102487 13.118797,5.276756 3.041589,2.698523 5.446033,6.62944 6.425817,10.50527 0.614097,2.42926 0.60759,2.21699 0.609966,19.89648 l 0.0022,16.35627 H 52.625553 31.737984 Z m 84.730497,-26.93754 -2.06072,-0.0602 -1.20826,-2.78102 c -0.66455,-1.52956 -1.23356,-2.80631 -1.26448,-2.83723 -0.0309,-0.0309 -0.6064,1.23321 -1.27886,2.80917 l -1.22264,2.86539 h -2.46199 c -1.35409,0 -2.46198,-0.0245 -2.46198,-0.0544 0,-0.0299 0.98172,-2.0492 2.18159,-4.48726 l 2.1816,-4.43284 0.43653,-0.0721 c 0.2401,-0.0397 1.59061,-0.0727 3.00114,-0.0733 l 2.5646,-10e-4 2.13544,4.30725 c 1.17449,2.36898 2.16687,4.44659 2.20528,4.61691 0.0662,0.29331 0.0499,0.30839 -0.30834,0.28538 -0.208,-0.0134 -1.30551,-0.0514 -2.43891,-0.0845 z m -36.817706,-21.313474 0.02878,-9.713803 h 1.745419 1.745419 l 0.02886,8.471448 0.02886,8.471447 2.335898,0.03043 2.335898,0.03043 v 1.182381 1.182381 l -4.138959,0.02954 -4.138958,0.02954 z m 9.994559,-0.02954 V 80.35157 h 4.053877 4.053877 v 1.294988 1.294989 H 95.41532 93.106862 v 2.758888 2.758889 h 1.801723 1.801723 v 1.294989 1.294988 h -1.801723 -1.801723 v 3.153016 3.153016 h 2.364761 2.364762 v 1.238684 1.238685 h -4.110181 -4.110181 z m 9.233831,9.707754 c 0,-0.150704 3.850656,-19.280195 3.895646,-19.352988 0.0324,-0.05243 0.88862,-0.09533 1.90271,-0.09533 1.65765,0 1.84996,0.01989 1.90487,0.197063 0.0336,0.108385 0.90043,4.402961 1.9263,9.543503 1.02588,5.140541 1.89201,9.435118 1.92474,9.543503 0.0548,0.18152 -0.0727,0.197063 -1.61721,0.197063 h -1.67671 l -0.24415,-1.435748 c -0.13429,-0.789662 -0.30562,-1.803131 -0.38074,-2.252154 l -0.13658,-0.816406 h -1.6662 c -0.9164,0 -1.66619,0.02276 -1.66619,0.05059 0,0.02782 -0.097,0.572563 -0.21549,1.210533 -0.11852,0.63797 -0.27352,1.51466 -0.34444,1.948199 -0.23915,1.461969 0.008,1.294989 -1.91959,1.294989 -0.927829,0 -1.686966,-0.01476 -1.686966,-0.03281 z m 7.159226,-6.798043 c -0.0605,-0.157781 -0.31965,-1.700667 -0.96613,-5.753056 -0.0618,-0.387089 -0.17245,-1.045844 -0.24599,-1.4639 l -0.13372,-0.760102 -0.417,2.533674 c -0.56003,3.402784 -0.89208,5.471816 -0.89208,5.558735 0,0.03941 0.61351,0.07165 1.36334,0.07165 1.22421,0 1.35602,-0.01908 1.29158,-0.187001 z m 6.26862,-2.881559 0.0288,-9.712415 2.9278,0.01487 c 3.52623,0.01791 4.32204,0.118384 5.45659,0.688943 1.63481,0.822136 2.26791,2.058663 2.26897,4.431622 10e-4,2.453981 -0.32407,3.224005 -1.95204,4.62264 l -0.30731,0.264013 1.29178,4.616916 c 0.71048,2.539303 1.29216,4.656207 1.29262,4.704231 4.7e-4,0.04802 -0.79132,0.07336 -1.75953,0.0563 l -1.76038,-0.03101 -0.4924,-1.801723 c -0.27082,-0.990948 -0.78819,-2.941876 -1.14972,-4.335397 l -0.65733,-2.533673 -0.80595,-0.03308 -0.80595,-0.03308 v 4.396633 4.396634 h -1.80235 -1.80235 z m 5.79034,-1.56417 c 0.25795,-0.06638 0.62622,-0.254671 0.81837,-0.418417 1.02892,-0.876788 1.0657,-3.751912 0.0601,-4.700286 -0.42225,-0.398232 -0.95776,-0.560784 -2.22021,-0.673931 l -0.87271,-0.07822 v 3.029977 3.029976 l 0.87271,-0.0342 c 0.47999,-0.01881 1.08376,-0.08852 1.34171,-0.1549 z m 7.49737,1.56417 0.0288,-9.712415 h 1.27565 1.27564 l 0.3331,0.788254 c 0.1832,0.43354 1.23071,2.891203 2.3278,5.461474 l 1.99471,4.67322 0.0563,-5.461474 0.0563,-5.461474 h 1.4076 1.4076 l 0.0288,9.712415 0.0288,9.712414 h -1.18011 c -1.40184,0 -1.09366,0.378268 -2.4771,-3.040408 -1.9739,-4.877759 -3.24609,-7.941432 -3.34103,-8.04582 -0.0548,-0.06024 -0.0973,2.338243 -0.0973,5.489625 v 5.596603 h -1.57713 -1.57713 z m 20.97987,9.571654 c -0.0237,-0.07742 -0.0729,-0.343453 -0.10927,-0.59119 -0.26174,-1.783403 -1.69406,-11.843267 -1.97207,-13.850747 -0.64818,-4.680448 -0.66115,-4.801517 -0.51995,-4.855701 0.072,-0.02764 0.7361,-0.0359 1.4757,-0.01834 l 1.34474,0.03191 0.12866,0.957166 c 0.43512,3.237219 0.85592,6.461997 1.12886,8.650963 0.19879,1.594374 0.34285,2.418128 0.39384,2.252154 0.0442,-0.143929 0.26507,-1.401842 0.49077,-2.795363 0.86708,-5.353476 1.41302,-8.622122 1.47173,-8.811552 0.0532,-0.171686 0.2171,-0.197064 1.27268,-0.197064 h 1.21161 l 0.13871,0.929014 c 0.24071,1.612143 1.81994,11.1629 1.85093,11.19389 0.0163,0.01629 0.37034,-2.688651 0.78677,-6.010978 0.41642,-3.322327 0.77385,-6.057303 0.79427,-6.077724 0.0204,-0.02042 0.67833,-0.06963 1.46203,-0.109348 l 1.4249,-0.07222 v 0.352137 c 0,0.193676 -0.22554,1.937062 -0.5012,3.874192 -0.27567,1.93713 -0.65879,4.662207 -0.85139,6.055727 -0.19261,1.393521 -0.52049,3.749837 -0.72864,5.236259 -0.20814,1.486421 -0.4136,2.993957 -0.45657,3.350079 l -0.0781,0.647494 h -1.48209 -1.4821 l -0.37638,-2.33661 c -0.20701,-1.285135 -0.47097,-2.894018 -0.58658,-3.575294 -0.11561,-0.681277 -0.31536,-1.922777 -0.4439,-2.758889 -0.45186,-2.939286 -0.7801,-4.632575 -0.78401,-4.044493 -5.9e-4,0.08774 -0.25466,1.730405 -0.56461,3.650366 -0.30995,1.919961 -0.74057,4.630992 -0.95694,6.024512 -0.21636,1.39352 -0.41931,2.647689 -0.451,2.787041 -0.0561,0.246818 -0.0955,0.253367 -1.52291,0.253367 -1.07414,0 -1.47681,-0.03758 -1.50846,-0.14076 z m 15.05459,-9.571654 0.0288,-9.712415 0.95716,-0.03594 c 0.52644,-0.01977 1.31238,-0.0039 1.74653,0.03522 l 0.78936,0.07117 0.0322,9.677188 0.0322,9.677189 h -1.8075 -1.80751 z m 8.39062,1.351292 -0.0289,-8.361122 -1.52021,-0.0563 -1.5202,-0.0563 0.006,-0.365975 c 0.003,-0.201287 0.0161,-0.7967 0.0282,-1.323141 l 0.0219,-0.957165 h 4.31968 c 2.37583,0 4.55478,0.03222 4.84213,0.07161 l 0.52245,0.07161 v 1.276415 1.276414 l -1.49205,0.03142 -1.49205,0.03142 -0.0289,8.361122 -0.0289,8.361122 h -1.80028 -1.80028 z m 8.38793,-1.3485 0.0288,-9.715207 h 1.80173 1.80172 l 0.0296,4.025726 0.0296,4.025725 h 1.91148 1.91149 l 0.0296,-4.025725 0.0296,-4.025726 h 1.74542 1.74542 l 0.0288,9.712415 0.0288,9.712414 h -1.80235 -1.80234 v -4.3917 -4.391701 h -1.91301 -1.91301 l -0.0295,4.363549 -0.0295,4.363548 -1.8305,0.03095 -1.8305,0.03094 z"
         id="path2246" />
      <path
         style="fill:#32b079"
         d="m 85.899969,137.21846 v -17.22898 h -3.153016 -3.153015 v -2.70258 -2.70259 h 9.909477 9.909478 v 2.70259 2.70258 h -3.096712 -3.096712 v 17.22898 17.22898 h -3.65975 -3.65975 z m 14.188571,17.18147 c 0,-0.0695 3.53631,-17.8418 4.90877,-24.66988 0.64735,-3.22058 1.59394,-7.9458 2.10353,-10.50048 l 0.92654,-4.64487 3.91312,-1.9e-4 c 2.15221,-1.1e-4 3.91312,0.0261 3.91312,0.0583 0,0.0897 1.10509,5.68679 1.4114,7.14844 0.24358,1.16232 4.46157,22.26744 5.89907,29.51659 0.31464,1.58667 0.57207,2.94219 0.57207,3.01225 0,0.0919 -0.93365,0.1274 -3.3544,0.1274 h -3.3544 l -0.19324,-1.09793 c -0.10628,-0.60386 -0.42196,-2.46611 -0.70151,-4.13833 -0.27954,-1.67223 -0.54557,-3.2431 -0.59116,-3.49084 l -0.0829,-0.45043 -3.44495,-0.0298 -3.44495,-0.0298 -0.25748,1.43735 c -0.70246,3.92143 -1.0268,5.78603 -1.14125,6.561 -0.0595,0.40258 -0.13252,0.84597 -0.16236,0.98532 l -0.0542,0.25337 h -3.43239 c -1.88782,0 -3.43239,-0.0214 -3.43239,-0.0475 z m 14.52639,-13.85568 c 0,-0.0896 -0.55836,-3.76193 -0.78818,-5.18382 -0.12013,-0.74321 -0.37337,-2.31409 -0.56277,-3.49084 -0.54693,-3.39816 -1.24768,-7.64753 -1.28037,-7.76426 -0.0287,-0.10256 -0.13704,0.53642 -1.02987,6.07515 -0.94023,5.83277 -1.08598,6.72683 -1.35163,8.29122 -0.15386,0.90605 -0.27974,1.75483 -0.27974,1.88618 0,0.23657 0.0248,0.23881 2.64628,0.23881 1.45546,0 2.64628,-0.0236 2.64628,-0.0524 z m 12.97773,-6.00022 0.0285,-19.90342 h 2.51221 2.51221 l 1.10576,2.58998 c 2.61824,6.13263 6.18103,14.50571 7.24546,17.02795 0.63292,1.49972 1.18876,2.72856 1.23521,2.73074 0.0465,0.002 0.0845,-5.03805 0.0845,-11.2005 v -11.20447 h 2.9841 2.9841 v 19.93156 19.93157 h -2.41055 -2.41056 l -0.33766,-0.81641 c -0.32189,-0.7783 -1.98959,-4.84276 -4.23924,-10.33176 -0.57113,-1.39352 -1.94599,-4.7633 -3.05525,-7.48841 l -2.01683,-4.95474 -0.0287,11.79566 -0.0287,11.79566 h -3.0965 -3.09651 z m 26.8854,-0.0282 v -19.93156 h 3.60344 3.60345 v 19.93156 19.93157 h -3.60345 -3.60344 z m 11.30152,19.6719 c 0.13187,-0.52539 5.2599,-26.11356 7.59829,-37.91434 l 0.32355,-1.63282 3.89319,-0.0296 c 3.63605,-0.0276 3.89708,-0.0165 3.95195,0.16891 0.0644,0.21748 2.5513,12.55993 4.07881,20.24269 2.37265,11.93356 3.76865,18.93759 3.82112,19.17146 l 0.0568,0.25337 h -3.37823 -3.37823 l -0.0554,-0.25337 c -0.0761,-0.34785 -1.06779,-6.28546 -1.29308,-7.74178 l -0.1829,-1.18238 h -3.47953 -3.47953 l -0.79724,4.50431 -0.79725,4.50431 -0.73082,0.0713 c -0.40196,0.0392 -1.96515,0.0772 -3.47377,0.0845 l -2.74295,0.0132 z m 14.59825,-13.65442 c 0,-0.0348 -0.3044,-1.92243 -0.67645,-4.19464 -0.37205,-2.27221 -0.95627,-5.85419 -1.29827,-7.95996 -0.342,-2.10576 -0.66072,-3.92383 -0.70826,-4.04015 -0.0571,-0.1396 -0.15298,0.2432 -0.28215,1.12607 -0.10764,0.73567 -0.31935,2.09768 -0.47048,3.02669 -0.15112,0.92902 -0.45478,2.80393 -0.67478,4.16649 -0.22001,1.36255 -0.47414,2.93343 -0.56474,3.49084 -0.0906,0.5574 -0.26818,1.69756 -0.3946,2.53367 -0.12643,0.83611 -0.25704,1.60888 -0.29025,1.71727 -0.0563,0.18389 0.12076,0.19706 2.64981,0.19706 1.49059,0 2.71017,-0.0285 2.71017,-0.0633 z M 31.737173,138.37269 c 8.28e-4,-2.77156 -0.0052,-10.25856 -0.01339,-16.63779 -0.01585,-12.34179 -0.01376,-12.39876 0.531945,-14.52639 0.73776,-2.87642 2.222929,-5.81475 4.098029,-8.107758 0.966273,-1.181626 2.967709,-3.059216 4.141218,-3.884966 2.653413,-1.867097 5.303239,-2.907007 9.201617,-3.611128 1.161509,-0.20979 1.604336,-0.234902 3.153015,-0.178803 3.502527,0.126876 6.229651,0.804466 9.126226,2.267532 5.649874,2.853762 9.714527,8.154403 11.097679,14.472283 0.341652,1.56058 0.421763,5.58049 0.431429,21.64883 l 0.0082,13.59738 H 52.624394 31.735666 Z m 84.701997,-26.93754 -2.06072,-0.0602 -1.20826,-2.78102 c -0.66455,-1.52956 -1.23356,-2.80631 -1.26448,-2.83723 -0.0309,-0.0309 -0.6064,1.23321 -1.27886,2.80917 l -1.22264,2.86539 h -2.46199 c -1.35409,0 -2.46198,-0.0245 -2.46198,-0.0544 0,-0.0299 0.98172,-2.0492 2.18159,-4.48726 l 2.1816,-4.43284 0.43653,-0.0721 c 0.2401,-0.0397 1.59061,-0.0727 3.00114,-0.0733 l 2.5646,-10e-4 2.13544,4.30725 c 1.17449,2.36898 2.16687,4.44659 2.20528,4.61691 0.0662,0.29331 0.0499,0.30839 -0.30834,0.28538 -0.208,-0.0134 -1.30551,-0.0514 -2.43891,-0.0845 z m -36.817706,-21.313474 0.02878,-9.713803 h 1.745419 1.745419 l 0.02886,8.471448 0.02886,8.471447 2.335898,0.03043 2.335898,0.03043 v 1.182381 1.182381 l -4.138959,0.02954 -4.138958,0.02954 z m 9.994559,-0.02954 V 80.35157 h 4.053877 4.053877 v 1.294988 1.294989 H 95.41532 93.106862 v 2.758888 2.758889 h 1.801723 1.801723 v 1.294989 1.294988 h -1.801723 -1.801723 v 3.153016 3.153016 h 2.364761 2.364762 v 1.238684 1.238685 h -4.110181 -4.110181 z m 9.233831,9.707754 c 0,-0.150704 3.850656,-19.280195 3.895646,-19.352988 0.0324,-0.05243 0.88862,-0.09533 1.90271,-0.09533 1.65765,0 1.84996,0.01989 1.90487,0.197063 0.0336,0.108385 0.90043,4.402961 1.9263,9.543503 1.02588,5.140541 1.89201,9.435118 1.92474,9.543503 0.0548,0.18152 -0.0727,0.197063 -1.61721,0.197063 h -1.67671 l -0.24415,-1.435748 c -0.13429,-0.789662 -0.30562,-1.803131 -0.38074,-2.252154 l -0.13658,-0.816406 h -1.6662 c -0.9164,0 -1.66619,0.02276 -1.66619,0.05059 0,0.02782 -0.097,0.572563 -0.21549,1.210533 -0.11852,0.63797 -0.27352,1.51466 -0.34444,1.948199 -0.23915,1.461969 0.008,1.294989 -1.91959,1.294989 -0.927829,0 -1.686966,-0.01476 -1.686966,-0.03281 z m 7.159226,-6.798043 c -0.0605,-0.157781 -0.31965,-1.700667 -0.96613,-5.753056 -0.0618,-0.387089 -0.17245,-1.045844 -0.24599,-1.4639 l -0.13372,-0.760102 -0.417,2.533674 c -0.56003,3.402784 -0.89208,5.471816 -0.89208,5.558735 0,0.03941 0.61351,0.07165 1.36334,0.07165 1.22421,0 1.35602,-0.01908 1.29158,-0.187001 z m 6.26862,-2.881559 0.0288,-9.712415 2.9278,0.01487 c 3.52623,0.01791 4.32204,0.118384 5.45659,0.688943 1.63481,0.822136 2.26791,2.058663 2.26897,4.431622 10e-4,2.453981 -0.32407,3.224005 -1.95204,4.62264 l -0.30731,0.264013 1.29178,4.616916 c 0.71048,2.539303 1.29216,4.656207 1.29262,4.704231 4.7e-4,0.04802 -0.79132,0.07336 -1.75953,0.0563 l -1.76038,-0.03101 -0.4924,-1.801723 c -0.27082,-0.990948 -0.78819,-2.941876 -1.14972,-4.335397 l -0.65733,-2.533673 -0.80595,-0.03308 -0.80595,-0.03308 v 4.396633 4.396634 h -1.80235 -1.80235 z m 5.79034,-1.56417 c 0.25795,-0.06638 0.62622,-0.254671 0.81837,-0.418417 1.02892,-0.876788 1.0657,-3.751912 0.0601,-4.700286 -0.42225,-0.398232 -0.95776,-0.560784 -2.22021,-0.673931 l -0.87271,-0.07822 v 3.029977 3.029976 l 0.87271,-0.0342 c 0.47999,-0.01881 1.08376,-0.08852 1.34171,-0.1549 z m 7.49737,1.56417 0.0288,-9.712415 h 1.27565 1.27564 l 0.3331,0.788254 c 0.1832,0.43354 1.23071,2.891203 2.3278,5.461474 l 1.99471,4.67322 0.0563,-5.461474 0.0563,-5.461474 h 1.4076 1.4076 l 0.0288,9.712415 0.0288,9.712414 h -1.18011 c -1.40184,0 -1.09366,0.378268 -2.4771,-3.040408 -1.9739,-4.877759 -3.24609,-7.941432 -3.34103,-8.04582 -0.0548,-0.06024 -0.0973,2.338243 -0.0973,5.489625 v 5.596603 h -1.57713 -1.57713 z m 20.97987,9.571654 c -0.0237,-0.07742 -0.0729,-0.343453 -0.10927,-0.59119 -0.26174,-1.783403 -1.69406,-11.843267 -1.97207,-13.850747 -0.64818,-4.680448 -0.66115,-4.801517 -0.51995,-4.855701 0.072,-0.02764 0.7361,-0.0359 1.4757,-0.01834 l 1.34474,0.03191 0.12866,0.957166 c 0.43512,3.237219 0.85592,6.461997 1.12886,8.650963 0.19879,1.594374 0.34285,2.418128 0.39384,2.252154 0.0442,-0.143929 0.26507,-1.401842 0.49077,-2.795363 0.86708,-5.353476 1.41302,-8.622122 1.47173,-8.811552 0.0532,-0.171686 0.2171,-0.197064 1.27268,-0.197064 h 1.21161 l 0.13871,0.929014 c 0.24071,1.612143 1.81994,11.1629 1.85093,11.19389 0.0163,0.01629 0.37034,-2.688651 0.78677,-6.010978 0.41642,-3.322327 0.77385,-6.057303 0.79427,-6.077724 0.0204,-0.02042 0.67833,-0.06963 1.46203,-0.109348 l 1.4249,-0.07222 v 0.352137 c 0,0.193676 -0.22554,1.937062 -0.5012,3.874192 -0.27567,1.93713 -0.65879,4.662207 -0.85139,6.055727 -0.19261,1.393521 -0.52049,3.749837 -0.72864,5.236259 -0.20814,1.486421 -0.4136,2.993957 -0.45657,3.350079 l -0.0781,0.647494 h -1.48209 -1.4821 l -0.37638,-2.33661 c -0.20701,-1.285135 -0.47097,-2.894018 -0.58658,-3.575294 -0.11561,-0.681277 -0.31536,-1.922777 -0.4439,-2.758889 -0.45186,-2.939286 -0.7801,-4.632575 -0.78401,-4.044493 -5.9e-4,0.08774 -0.25466,1.730405 -0.56461,3.650366 -0.30995,1.919961 -0.74057,4.630992 -0.95694,6.024512 -0.21636,1.39352 -0.41931,2.647689 -0.451,2.787041 -0.0561,0.246818 -0.0955,0.253367 -1.52291,0.253367 -1.07414,0 -1.47681,-0.03758 -1.50846,-0.14076 z m 15.05459,-9.571654 0.0288,-9.712415 0.95716,-0.03594 c 0.52644,-0.01977 1.31238,-0.0039 1.74653,0.03522 l 0.78936,0.07117 0.0322,9.677188 0.0322,9.677189 h -1.8075 -1.80751 z m 8.39062,1.351292 -0.0289,-8.361122 -1.52021,-0.0563 -1.5202,-0.0563 0.006,-0.365975 c 0.003,-0.201287 0.0161,-0.7967 0.0282,-1.323141 l 0.0219,-0.957165 h 4.31968 c 2.37583,0 4.55478,0.03222 4.84213,0.07161 l 0.52245,0.07161 v 1.276415 1.276414 l -1.49205,0.03142 -1.49205,0.03142 -0.0289,8.361122 -0.0289,8.361122 h -1.80028 -1.80028 z m 8.38793,-1.3485 0.0288,-9.715207 h 1.80173 1.80172 l 0.0296,4.025726 0.0296,4.025725 h 1.91148 1.91149 l 0.0296,-4.025725 0.0296,-4.025726 h 1.74542 1.74542 l 0.0288,9.712415 0.0288,9.712414 h -1.80235 -1.80234 v -4.3917 -4.391701 h -1.91301 -1.91301 l -0.0295,4.363549 -0.0295,4.363548 -1.8305,0.03095 -1.8305,0.03094 z"
         id="path2245" />
      <path
         style="fill:#49da17"
         d="m 86.012577,137.21846 v -17.22898 h -3.211358 -3.211357 l 0.03019,-2.67443 0.03019,-2.67444 9.881325,-0.0288 9.881326,-0.0288 v 2.7032 2.7032 h -3.096712 -3.096712 v 17.22898 17.22898 h -3.603446 -3.603446 z m 14.171133,17.174 c -0.0302,-0.0302 0.16489,-1.15772 0.43363,-2.50552 0.26874,-1.3478 2.05105,-10.2796 3.96071,-19.84844 l 3.4721,-17.39789 2.63489,-0.0351 c 1.4492,-0.0193 3.19842,-0.002 3.88717,0.0383 l 1.25227,0.0734 0.53065,2.72053 c 0.29186,1.4963 0.60336,3.07526 0.69222,3.5088 0.3337,1.62807 6.68881,33.41979 6.68881,33.46105 0,0.0237 -1.50417,0.0297 -3.34258,0.0133 l -3.34258,-0.0298 -0.14861,-0.84455 c -0.29176,-1.65814 -1.38508,-8.16562 -1.38583,-8.24852 -4.2e-4,-0.0464 -1.56805,-0.0845 -3.48362,-0.0845 h -3.48286 l -0.11307,0.59119 c -0.26187,1.36916 -0.58005,3.11447 -0.68258,3.7442 -0.0605,0.37161 -0.26454,1.57845 -0.45342,2.68187 -0.18887,1.10342 -0.3434,2.05355 -0.3434,2.11139 0,0.10675 -6.66794,0.15617 -6.7739,0.0502 z m 14.38847,-14.33066 c -0.0406,-0.35612 -0.14642,-1.10355 -0.23523,-1.66096 -0.0888,-0.55741 -0.29249,-1.84958 -0.4526,-2.8715 -0.75458,-4.81603 -1.84868,-11.40019 -1.90349,-11.45501 -0.0628,-0.0628 -0.11615,0.21828 -0.51808,2.72792 -0.18846,1.17675 -0.44221,2.74762 -0.5639,3.49084 -0.12169,0.74321 -0.37544,2.31408 -0.5639,3.49083 -0.18846,1.17675 -0.51873,3.19224 -0.73393,4.47885 -0.21521,1.28662 -0.39129,2.36343 -0.39129,2.39292 0,0.0295 1.22314,0.0536 2.71809,0.0536 h 2.71809 z m 13.06951,14.31237 c -0.0972,-0.0972 -0.0779,-38.14416 0.0198,-39.05791 l 0.0722,-0.67565 1.06977,-0.0292 c 0.58838,-0.0161 1.69417,0.009 2.45732,0.0563 l 1.38755,0.0855 4.76317,11.18052 c 2.61974,6.14929 4.79505,11.21242 4.83402,11.25139 0.039,0.039 0.0709,-4.99742 0.0709,-11.19198 V 114.7303 l 0.92901,-0.0723 c 1.19635,-0.0931 3.08152,-0.0935 4.17796,-8.2e-4 l 0.86186,0.0729 -0.0285,19.83056 -0.0285,19.83055 -2.33143,0.0304 c -2.32302,0.0303 -2.33193,0.0295 -2.46851,-0.22521 -0.0754,-0.1406 -0.78983,-1.85185 -1.58764,-3.80278 -5.07407,-12.40788 -6.73438,-16.47083 -7.36269,-18.01723 l -0.70918,-1.74542 -0.0335,11.88011 -0.0335,11.88011 -2.99169,0.03 c -1.64543,0.0165 -3.02628,-0.005 -3.06856,-0.0469 z m 26.94898,-19.85669 v -19.93317 h 2.51637 c 1.384,0 2.98036,0.0329 3.54745,0.0732 l 1.03108,0.0732 -0.0285,19.83022 -0.0285,19.83022 -3.51899,0.0298 -3.51899,0.0298 z m 11.26077,19.80643 c 0,-0.16102 7.59223,-38.22552 7.79158,-39.06395 l 0.14726,-0.61935 3.76518,-0.0297 c 2.07085,-0.0163 3.80767,0.0128 3.8596,0.0647 0.0519,0.0519 0.44949,1.83886 0.88347,3.97096 1.7794,8.74192 7.08791,35.39904 7.08791,35.5925 0,0.19713 -0.15065,0.20834 -2.79947,0.20834 -1.53971,0 -3.02895,-0.0315 -3.30943,-0.0699 l -0.50994,-0.0699 -0.1239,-0.6339 c -0.0682,-0.34864 -0.20497,-1.16597 -0.30406,-1.81628 -0.0991,-0.65031 -0.30031,-1.86647 -0.44718,-2.70258 -0.14687,-0.83612 -0.35334,-2.06495 -0.45882,-2.73074 l -0.19179,-1.21053 h -3.52872 c -2.74674,0 -3.52921,0.0312 -3.53091,0.14076 -0.001,0.0774 -0.15522,1.0022 -0.34226,2.05509 -0.18704,1.05288 -0.41206,2.31971 -0.50005,2.81519 -0.088,0.49547 -0.28448,1.60185 -0.43664,2.45862 -0.15216,0.85677 -0.29353,1.57186 -0.31416,1.58908 -0.0206,0.0172 -1.54505,0.0646 -3.3876,0.10518 -2.46253,0.0543 -3.35007,0.0401 -3.35007,-0.0536 z m 14.55762,-13.89613 c -0.0138,-0.12387 -0.25546,-1.61874 -0.53704,-3.32193 -0.28158,-1.70319 -0.61086,-3.70479 -0.73172,-4.448 -1.11305,-6.84422 -1.36972,-8.36136 -1.44586,-8.54645 -0.061,-0.14836 -0.13036,0.075 -0.22728,0.73195 -0.0767,0.51998 -0.21328,1.41416 -0.30351,1.98705 -0.0902,0.57289 -0.23795,1.51035 -0.32827,2.08324 -0.0903,0.57289 -0.41639,2.58716 -0.7246,4.47616 -0.48545,2.97525 -0.86457,5.36412 -1.09493,6.89924 l -0.0637,0.42431 2.74098,-0.0302 c 2.66541,-0.0293 2.74028,-0.0364 2.7159,-0.25539 z M 31.738228,133.19771 c 0.0014,-0.0492 -0.0049,-5.25813 -0.01397,-11.57542 -0.0176,-12.22576 -0.01556,-12.281 0.531471,-14.41378 0.73776,-2.87642 2.222929,-5.81475 4.098029,-8.107758 0.966273,-1.181626 2.967709,-3.059216 4.141218,-3.884966 2.653413,-1.867097 5.303239,-2.907007 9.201617,-3.611128 1.161509,-0.20979 1.604336,-0.234902 3.153015,-0.178803 3.502527,0.126876 6.229651,0.804466 9.126226,2.267532 5.649934,2.853792 9.68059,8.107833 11.102475,14.472283 0.200277,0.89646 0.247302,1.55324 0.29025,4.05388 l 0.05125,2.9841 -0.347656,1.37359 c -0.53212,2.1024 -0.96848,3.33151 -1.751123,4.93244 -2.632464,5.38483 -7.662637,9.51793 -13.404077,11.01362 -2.703481,0.70428 -2.207357,0.67989 -14.723457,0.72372 -6.301808,0.0221 -11.45668,-1.3e-4 -11.455271,-0.0493 z m 73.289632,-22.86434 c 0.30232,-0.60386 0.66294,-1.35129 0.80138,-1.66096 0.52282,-1.1695 2.94605,-5.97372 3.07596,-6.0983 0.15714,-0.1507 1.70562,-0.21394 4.24583,-0.1734 l 1.74542,0.0279 1.9635,3.96648 c 1.07993,2.18157 2.05519,4.20718 2.16724,4.50137 l 0.20374,0.53489 h -2.39952 -2.39952 l -1.21915,-2.81824 c -0.67053,-1.55003 -1.25633,-2.84122 -1.30178,-2.86931 -0.0748,-0.0462 -0.94951,1.89009 -2.09835,4.64479 l -0.43394,1.04049 -2.45024,0.001 -2.45024,10e-4 z M 79.66901,99.75763 c -0.04129,-0.04129 -0.07507,-4.399207 -0.07507,-9.684262 v -9.609191 h 1.801723 1.801723 v 8.445578 8.445578 h 2.308458 2.308458 v 1.238684 1.238685 h -4.035109 c -2.21931,0 -4.068892,-0.03378 -4.110181,-0.07507 z m 9.947013,-9.60919 v -9.684263 h 4.053877 4.053877 v 1.238685 1.238685 H 95.41532 93.106862 v 2.815192 2.815193 h 1.801723 1.801723 v 1.182381 1.182381 h -1.801723 -1.801723 v 3.209319 3.20932 h 2.308458 2.308457 v 1.238684 1.238685 H 93.6699 89.616023 Z m 9.344253,9.261983 c 0.0441,-0.232253 0.911412,-4.59002 1.927364,-9.683927 l 1.84718,-9.261648 1.87859,-3.35e-4 c 1.69169,-3.02e-4 1.88448,0.01927 1.93776,0.196728 0.0996,0.331664 3.78467,18.850898 3.78467,19.019691 0,0.129605 -0.288,0.152346 -1.60466,0.12671 l -1.60466,-0.03124 -0.0685,-0.450431 c -0.0377,-0.247737 -0.17709,-1.083849 -0.3098,-1.858027 -0.13272,-0.774178 -0.26887,-1.572285 -0.30257,-1.773571 l -0.0613,-0.365975 h -1.67197 c -1.28546,0 -1.68522,0.03454 -1.72931,0.149434 -0.0315,0.08219 -0.2245,1.095659 -0.4288,2.252154 l -0.37145,2.10272 h -1.65137 -1.651375 z m 7.096474,-6.282627 c 0,-0.03358 -0.0728,-0.426297 -0.16168,-0.872709 -0.16717,-0.839188 -0.73656,-4.366771 -0.97621,-6.047917 -0.075,-0.526441 -0.17065,-1.024455 -0.21246,-1.106698 -0.0418,-0.08224 -0.18906,0.551176 -0.32722,1.407597 -0.13816,0.85642 -0.42531,2.630936 -0.63811,3.943368 -0.2128,1.312432 -0.38691,2.465253 -0.38691,2.561825 0,0.149288 0.20239,0.175586 1.35129,0.175586 0.74322,0 1.3513,-0.02747 1.3513,-0.06105 z m 6.30603,-2.991402 v -9.696307 l 3.40638,0.04804 c 3.15831,0.04454 3.45828,0.06622 4.11905,0.297747 0.39196,0.137341 0.89898,0.367328 1.1267,0.511083 0.48036,0.303241 1.17123,1.038812 1.4108,1.5021 0.65847,1.273339 0.69902,4.140639 0.079,5.587066 -0.21854,0.509832 -0.91875,1.304542 -1.52385,1.729502 l -0.33421,0.234721 1.27877,4.60042 c 0.70333,2.530231 1.30254,4.663762 1.33158,4.741179 0.0408,0.108819 -0.34263,0.14076 -1.68984,0.14076 h -1.74265 l -0.30376,-1.094984 c -0.16707,-0.602241 -0.62958,-2.337807 -1.02779,-3.856814 -0.39821,-1.519006 -0.79177,-3.015197 -0.87456,-3.324868 L 117.46786,90.993 h -0.83528 -0.83528 l -0.0295,4.419853 -0.0294,4.419852 h -1.68781 -1.68781 z m 5.98575,-1.611609 c 0.99405,-0.415873 1.59876,-1.936648 1.355,-3.407682 -0.17002,-1.026011 -0.51669,-1.686462 -1.01844,-1.940233 -0.54761,-0.27697 -1.45401,-0.460539 -2.27398,-0.460539 h -0.6701 v 3.057419 3.057418 l 1.09792,-0.06708 c 0.60386,-0.03689 1.28318,-0.14458 1.5096,-0.239306 z m 7.30196,1.623655 v -9.684263 h 1.22642 1.22643 l 0.45301,1.041622 c 0.24916,0.572891 1.30615,3.043223 2.34887,5.489625 l 1.89586,4.448004 0.0292,-5.489625 0.0292,-5.489626 h 1.40653 1.40652 v 9.684263 9.684262 h -1.06718 c -0.9903,0 -1.07944,-0.01872 -1.23742,-0.25983 -0.0936,-0.142907 -0.74661,-1.675779 -1.45106,-3.406383 -0.70445,-1.730604 -1.70582,-4.185359 -2.22526,-5.455011 l -0.94445,-2.308458 -0.0292,5.714841 -0.0292,5.714841 h -1.51917 -1.51917 z m 20.84685,8.980464 C 146.31696,98.08228 144.2083,83.14458 143.94602,81.055368 l -0.0742,-0.591191 h 1.40922 1.40921 l 0.0611,0.309672 c 0.0336,0.170319 0.13921,0.892416 0.23465,1.604659 0.0954,0.712244 0.20135,1.497683 0.23534,1.74542 0.034,0.247737 0.28904,2.24702 0.56677,4.442852 0.27774,2.195832 0.52722,4.014662 0.5544,4.041843 0.0877,0.08773 0.14362,-0.207882 0.73123,-3.86778 0.3182,-1.981895 0.75222,-4.631047 0.96449,-5.887004 0.21227,-1.255956 0.38594,-2.307431 0.38594,-2.33661 0,-0.02918 0.52848,-0.05305 1.1744,-0.05305 h 1.17439 l 0.11461,0.591191 c 0.063,0.325154 0.19801,1.148598 0.29995,1.829875 0.3219,2.151267 1.62392,9.886283 1.67229,9.934648 0.0625,0.06251 0.0708,1.96e-4 0.87984,-6.584394 l 0.70903,-5.77097 1.44265,-1.75e-4 1.44265,-1.75e-4 -0.0701,0.534887 c -0.0386,0.294188 -0.16615,1.193642 -0.28352,1.998787 -0.11736,0.805145 -0.28963,2.021308 -0.38281,2.702584 -0.31861,2.329538 -1.08818,7.880851 -1.30348,9.402744 -0.11829,0.836112 -0.29573,2.128285 -0.39432,2.871496 -0.0986,0.743211 -0.20337,1.465308 -0.23284,1.60466 -0.0521,0.24633 -0.0926,0.253367 -1.45689,0.253367 -1.36453,0 -1.40477,-0.007 -1.45624,-0.253367 -0.0291,-0.139352 -0.23272,-1.393521 -0.45247,-2.787041 -0.21975,-1.39352 -0.47489,-2.964398 -0.567,-3.490839 -0.0921,-0.526441 -0.34533,-2.071981 -0.56274,-3.434535 -0.42744,-2.678897 -0.49538,-3.034956 -0.56568,-2.964651 -0.055,0.05504 -1.02902,5.9954 -1.97699,12.057723 l -0.13647,0.87271 h -1.43689 -1.43689 z m 15.15007,0.628726 c -0.0413,-0.04129 -0.0751,-4.399207 -0.0751,-9.684262 v -9.609191 h 1.81741 1.81741 l -0.071,0.591191 c -0.0391,0.325154 -0.0714,4.683073 -0.072,9.684262 l -9.8e-4,9.093072 h -1.67035 c -0.91869,0 -1.70413,-0.03378 -1.74542,-0.07507 z m 8.37051,-8.314202 v -8.389274 h -1.5202 -1.52021 v -1.294988 -1.294989 h 4.84213 4.84213 v 1.294989 1.294988 h -1.5202 -1.5202 v 8.389274 8.389274 h -1.80173 -1.80172 z m 8.44558,-1.294988 v -9.684263 h 1.74399 1.744 l 0.0296,4.025726 0.0296,4.025725 1.94248,0.03081 1.94249,0.03081 v -4.056536 -4.056537 h 1.74541 1.74542 v 9.684263 9.684262 h -1.74542 -1.74541 V 95.441 91.049299 h -1.97064 -1.97063 V 95.441 99.8327 h -1.74542 -1.74542 z"
         id="path2244" />
      <path
         style="fill:#f2f2f2"
         d="m 86.429137,137.49672 v -17.22898 h -3.211358 -3.211357 l 0.03019,-2.67443 0.03019,-2.67444 9.881325,-0.0288 9.881326,-0.0288 v 2.7032 2.7032 h -3.096712 -3.096712 v 17.22898 17.22898 h -3.603446 -3.603446 z m 14.171143,17.174 c -0.0302,-0.0302 0.16489,-1.15772 0.43363,-2.50552 0.26874,-1.3478 2.05105,-10.2796 3.96071,-19.84844 l 3.4721,-17.39789 2.63489,-0.0351 c 1.4492,-0.0193 3.19842,-0.002 3.88717,0.0383 l 1.25227,0.0734 0.53065,2.72053 c 0.29186,1.4963 0.60336,3.07526 0.69222,3.5088 0.3337,1.62807 6.68881,33.41979 6.68881,33.46105 0,0.0237 -1.50417,0.0297 -3.34258,0.0133 l -3.34258,-0.0298 -0.14861,-0.84455 c -0.29176,-1.65814 -1.38508,-8.16562 -1.38583,-8.24852 -4.2e-4,-0.0464 -1.56805,-0.0845 -3.48362,-0.0845 h -3.48286 l -0.11307,0.59119 c -0.26187,1.36916 -0.58005,3.11447 -0.68258,3.7442 -0.0605,0.37161 -0.26454,1.57845 -0.45342,2.68187 -0.18887,1.10342 -0.3434,2.05355 -0.3434,2.11139 0,0.10675 -6.66794,0.15617 -6.7739,0.0502 z m 14.38847,-14.33066 c -0.0406,-0.35612 -0.14642,-1.10355 -0.23523,-1.66096 -0.0888,-0.55741 -0.29249,-1.84958 -0.4526,-2.8715 -0.75458,-4.81603 -1.84868,-11.40019 -1.90349,-11.45501 -0.0628,-0.0628 -0.11615,0.21828 -0.51808,2.72792 -0.18846,1.17675 -0.44221,2.74762 -0.5639,3.49084 -0.12169,0.74321 -0.37544,2.31408 -0.5639,3.49083 -0.18846,1.17675 -0.51873,3.19224 -0.73393,4.47885 -0.21521,1.28662 -0.39129,2.36343 -0.39129,2.39292 0,0.0295 1.22314,0.0536 2.71809,0.0536 h 2.71809 z m 13.06951,14.31237 c -0.0972,-0.0972 -0.0779,-38.14416 0.0198,-39.05791 l 0.0722,-0.67565 1.06977,-0.0292 c 0.58838,-0.0161 1.69417,0.009 2.45732,0.0563 l 1.38755,0.0855 4.76317,11.18052 c 2.61974,6.14929 4.79505,11.21242 4.83402,11.25139 0.039,0.039 0.0709,-4.99742 0.0709,-11.19198 v -11.26284 l 0.92901,-0.0723 c 1.19635,-0.0931 3.08152,-0.0935 4.17796,-8.2e-4 l 0.86186,0.0729 -0.0285,19.83056 -0.0285,19.83055 -2.33143,0.0304 c -2.32302,0.0303 -2.33193,0.0295 -2.46851,-0.22521 -0.0754,-0.1406 -0.78983,-1.85185 -1.58764,-3.80278 -5.07407,-12.40788 -6.73438,-16.47083 -7.36269,-18.01723 l -0.70918,-1.74542 -0.0335,11.88011 -0.0335,11.88011 -2.99169,0.03 c -1.64543,0.0165 -3.02628,-0.005 -3.06856,-0.0469 z m 26.94898,-19.85669 v -19.93317 h 2.51637 c 1.384,0 2.98036,0.0329 3.54745,0.0732 l 1.03108,0.0732 -0.0285,19.83022 -0.0285,19.83022 -3.51899,0.0298 -3.51899,0.0298 z m 11.26077,19.80643 c 0,-0.16102 7.59223,-38.22552 7.79158,-39.06395 l 0.14726,-0.61935 3.76518,-0.0297 c 2.07085,-0.0163 3.80767,0.0128 3.8596,0.0647 0.0519,0.0519 0.44949,1.83886 0.88347,3.97096 1.7794,8.74192 7.08791,35.39904 7.08791,35.5925 0,0.19713 -0.15065,0.20834 -2.79947,0.20834 -1.53971,0 -3.02895,-0.0315 -3.30943,-0.0699 l -0.50994,-0.0699 -0.1239,-0.6339 c -0.0682,-0.34864 -0.20497,-1.16597 -0.30406,-1.81628 -0.0991,-0.65031 -0.30031,-1.86647 -0.44718,-2.70258 -0.14687,-0.83612 -0.35334,-2.06495 -0.45882,-2.73074 l -0.19179,-1.21053 h -3.52872 c -2.74674,0 -3.52921,0.0312 -3.53091,0.14076 -0.001,0.0774 -0.15522,1.0022 -0.34226,2.05509 -0.18704,1.05288 -0.41206,2.31971 -0.50005,2.81519 -0.088,0.49547 -0.28448,1.60185 -0.43664,2.45862 -0.15216,0.85677 -0.29353,1.57186 -0.31416,1.58908 -0.0206,0.0172 -1.54505,0.0646 -3.3876,0.10518 -2.46253,0.0543 -3.35007,0.0401 -3.35007,-0.0536 z m 14.55762,-13.89613 c -0.0138,-0.12387 -0.25546,-1.61874 -0.53704,-3.32193 -0.28158,-1.70319 -0.61086,-3.70479 -0.73172,-4.448 -1.11305,-6.84422 -1.36972,-8.36136 -1.44586,-8.54645 -0.061,-0.14836 -0.13036,0.075 -0.22728,0.73195 -0.0767,0.51998 -0.21328,1.41416 -0.30351,1.98705 -0.0902,0.57289 -0.23795,1.51035 -0.32827,2.08324 -0.0903,0.57289 -0.41639,2.58716 -0.7246,4.47616 -0.48545,2.97525 -0.86457,5.36412 -1.09493,6.89924 l -0.0637,0.42431 2.74098,-0.0302 c 2.66541,-0.0293 2.74028,-0.0364 2.7159,-0.25539 z m -75.3812,-30.09441 c 0.30232,-0.60386 0.66294,-1.35129 0.80138,-1.66096 0.52282,-1.1695 2.94605,-5.97372 3.07596,-6.0983 0.15714,-0.1507 1.70562,-0.21394 4.24583,-0.1734 l 1.74542,0.0279 1.9635,3.96648 c 1.07993,2.18157 2.05519,4.20718 2.16724,4.50137 l 0.20374,0.53489 h -2.39952 -2.39952 l -1.21915,-2.81824 c -0.67053,-1.55003 -1.25633,-2.84122 -1.30178,-2.86931 -0.0748,-0.0462 -0.94951,1.89009 -2.09835,4.64479 l -0.43394,1.04049 -2.45024,0.001 -2.45024,10e-4 z M 80.08557,100.03589 C 80.04428,99.99459 80.0105,95.636682 80.0105,90.351627 v -9.609191 h 1.801723 1.801723 v 8.445578 8.445578 h 2.308458 2.308458 v 1.238684 1.238684 h -4.035109 c -2.21931,0 -4.068892,-0.0338 -4.110181,-0.0751 z m 9.947013,-9.609191 v -9.684263 h 4.053877 4.053877 v 1.238685 1.238685 H 95.83188 93.523422 v 2.815192 2.815193 h 1.801723 1.801723 v 1.182381 1.182381 h -1.801723 -1.801723 v 3.209319 3.20932 h 2.308458 2.308457 v 1.238684 1.238684 H 94.08646 90.032583 Z m 9.344253,9.261983 c 0.0441,-0.23225 0.911414,-4.59002 1.927374,-9.683927 l 1.84718,-9.261648 1.87859,-3.35e-4 c 1.69169,-3.02e-4 1.88448,0.01927 1.93776,0.196728 0.0996,0.331664 3.78467,18.850901 3.78467,19.019691 0,0.129599 -0.288,0.152349 -1.60466,0.126709 l -1.60466,-0.0312 -0.0685,-0.450428 c -0.0377,-0.24774 -0.17709,-1.083851 -0.3098,-1.858029 -0.13272,-0.774178 -0.26887,-1.572285 -0.30257,-1.773571 l -0.0613,-0.365975 h -1.67197 c -1.28546,0 -1.68522,0.03454 -1.72931,0.149434 -0.0315,0.08219 -0.2245,1.095659 -0.4288,2.252154 l -0.37145,2.102715 h -1.65137 -1.651385 z m 7.096484,-6.282627 c 0,-0.03358 -0.0728,-0.426297 -0.16168,-0.872709 -0.16717,-0.839188 -0.73656,-4.366771 -0.97621,-6.047917 -0.075,-0.526441 -0.17065,-1.024455 -0.21246,-1.106698 -0.0418,-0.08224 -0.18906,0.551176 -0.32722,1.407597 -0.13816,0.85642 -0.42531,2.630936 -0.63811,3.943368 -0.2128,1.312432 -0.38691,2.465253 -0.38691,2.561825 0,0.149288 0.20239,0.175586 1.35129,0.175586 0.74322,0 1.3513,-0.02747 1.3513,-0.06105 z m 6.30603,-2.991402 v -9.696307 l 3.40638,0.04804 c 3.15831,0.04454 3.45828,0.06622 4.11905,0.297747 0.39196,0.137341 0.89898,0.367328 1.1267,0.511083 0.48036,0.303241 1.17123,1.038812 1.4108,1.5021 0.65847,1.273339 0.69902,4.140639 0.079,5.587066 -0.21854,0.509832 -0.91875,1.304542 -1.52385,1.729502 l -0.33421,0.234721 1.27877,4.60042 c 0.70333,2.530231 1.30254,4.663766 1.33158,4.741176 0.0408,0.108819 -0.34263,0.140759 -1.68984,0.140759 h -1.74265 l -0.30376,-1.09498 c -0.16707,-0.602241 -0.62958,-2.337807 -1.02779,-3.856814 -0.39821,-1.519006 -0.79177,-3.015197 -0.87456,-3.324868 l -0.15054,-0.563039 h -0.83528 -0.83528 l -0.0295,4.419853 -0.0294,4.419848 h -1.68781 -1.68781 z m 5.98575,-1.611609 c 0.99405,-0.415873 1.59876,-1.936648 1.355,-3.407682 -0.17002,-1.026011 -0.51669,-1.686462 -1.01844,-1.940233 -0.54761,-0.27697 -1.45401,-0.460539 -2.27398,-0.460539 h -0.6701 v 3.057419 3.057418 l 1.09792,-0.06708 c 0.60386,-0.03689 1.28318,-0.14458 1.5096,-0.239306 z m 7.30196,1.623655 v -9.684263 h 1.22642 1.22643 l 0.45301,1.041622 c 0.24916,0.572891 1.30615,3.043223 2.34887,5.489625 l 1.89586,4.448004 0.0292,-5.489625 0.0292,-5.489626 h 1.40653 1.40652 v 9.684263 9.684261 h -1.06718 c -0.9903,0 -1.07944,-0.0187 -1.23742,-0.259829 -0.0936,-0.142909 -0.74661,-1.675779 -1.45106,-3.406383 -0.70445,-1.730604 -1.70582,-4.185359 -2.22526,-5.455011 l -0.94445,-2.308458 -0.0292,5.714841 -0.0292,5.71484 h -1.51917 -1.51917 z m 20.84685,8.980463 c -0.18038,-1.046623 -2.28904,-15.984323 -2.55132,-18.073535 l -0.0742,-0.591191 h 1.40922 1.40921 l 0.0611,0.309672 c 0.0336,0.170319 0.13921,0.892416 0.23465,1.604659 0.0954,0.712244 0.20135,1.497683 0.23534,1.74542 0.034,0.247737 0.28904,2.24702 0.56677,4.442852 0.27774,2.195832 0.52722,4.014662 0.5544,4.041843 0.0877,0.08773 0.14362,-0.207882 0.73123,-3.86778 0.3182,-1.981895 0.75222,-4.631047 0.96449,-5.887004 0.21227,-1.255956 0.38594,-2.307431 0.38594,-2.33661 0,-0.02918 0.52848,-0.05305 1.1744,-0.05305 h 1.17439 l 0.11461,0.591191 c 0.063,0.325154 0.19801,1.148598 0.29995,1.829875 0.3219,2.151267 1.62392,9.886283 1.67229,9.934648 0.0625,0.06251 0.0708,1.96e-4 0.87984,-6.584394 l 0.70903,-5.77097 1.44265,-1.75e-4 1.44265,-1.75e-4 -0.0701,0.534887 c -0.0386,0.294188 -0.16615,1.193642 -0.28352,1.998787 -0.11736,0.805145 -0.28963,2.021308 -0.38281,2.702584 -0.31861,2.329538 -1.08818,7.880851 -1.30348,9.402744 -0.11829,0.836112 -0.29573,2.128285 -0.39432,2.871496 -0.0986,0.743211 -0.20337,1.465306 -0.23284,1.604655 -0.0521,0.246329 -0.0926,0.253369 -1.45689,0.253369 -1.36453,0 -1.40477,-0.007 -1.45624,-0.253369 -0.0291,-0.139349 -0.23272,-1.393516 -0.45247,-2.787036 -0.21975,-1.39352 -0.47489,-2.964398 -0.567,-3.490839 -0.0921,-0.526441 -0.34533,-2.071981 -0.56274,-3.434535 -0.42744,-2.678897 -0.49538,-3.034956 -0.56568,-2.964651 -0.055,0.05504 -1.02902,5.9954 -1.97699,12.057722 l -0.13647,0.872708 h -1.43689 -1.43689 z m 15.15007,0.628728 c -0.0413,-0.0413 -0.0751,-4.399208 -0.0751,-9.684263 v -9.609191 h 1.81741 1.81741 l -0.071,0.591191 c -0.0391,0.325154 -0.0714,4.683073 -0.072,9.684262 l -9.8e-4,9.093071 h -1.67035 c -0.91869,0 -1.70413,-0.0338 -1.74542,-0.0751 z m 8.37051,-8.314203 v -8.389274 h -1.5202 -1.52021 v -1.294988 -1.294989 h 4.84213 4.84213 v 1.294989 1.294988 h -1.5202 -1.5202 v 8.389274 8.389273 h -1.80173 -1.80172 z m 8.44558,-1.294988 v -9.684263 h 1.74399 1.744 l 0.0296,4.025726 0.0296,4.025725 1.94248,0.03081 1.94249,0.03081 v -4.056536 -4.056537 h 1.74541 1.74542 v 9.684263 9.684263 h -1.74542 -1.74541 v -4.391701 -4.391701 h -1.97064 -1.97063 v 4.391701 4.391701 h -1.74542 -1.74542 z"
         id="path2243" />
    </g>
  </g>
</svg>
